# xmcd CD database file
#
# Track frame offsets:
#	150
#	15148
#	27672
#	40257
#	54725
#	69635
#	102821
#	116588
#	127825
#	141114
#
# Disc length: 2057 seconds
#
# Revision: 0
# Processed by: cddbd v1.5.2PL0 Copyright (c) Steve Scherf et al.
# Submitted via: CDex 1.51
#
DISCID=8108070a
DTITLE=Various Artist - Take the A Train
DYEAR=1900
DGENRE=Jazz
TTITLE0=American Patrol - Glenn Miller
TTITLE1=Take the jA Train - Duke Ellington
TTITLE2=Maple Leaf Rag - Earl Hines Quartet
TTITLE3=Minnie the Moocher - Cab Calloway
TTITLE4=Jumpin' at the Woodside - Count Basie
TTITLE5=Caldonia - Woody Herman
TTITLE6=East St. Louis Toodle-oo  - Duke Ellington
TTITLE7=The Boogie Woogie Man - Casa Loma Orchestra
TTITLE8=King Porter Stomp - Benny Goodman
TTITLE9=Taking a Chance on Love - Tommy Dorsey
EXTD=
EXTT0=
EXTT1=
EXTT2=
EXTT3=
EXTT4=
EXTT5=
EXTT6=
EXTT7=
EXTT8=
EXTT9=
PLAYORDER=
